<mxfile host="Electron" agent="Mozilla/5.0 (Windows NT 10.0; Win64; x64) AppleWebKit/537.36 (KHTML, like Gecko) draw.io/27.0.9 Chrome/134.0.6998.205 Electron/35.4.0 Safari/537.36" version="27.0.9">
  <diagram id="R2lEEEUBdFMjLlhIrx00" name="Page-1">
    <mxGraphModel dx="2742" dy="626" grid="0" gridSize="10" guides="1" tooltips="1" connect="1" arrows="1" fold="1" page="1" pageScale="2" pageWidth="850" pageHeight="1100" math="0" shadow="0" extFonts="Permanent Marker^https://fonts.googleapis.com/css?family=Permanent+Marker">
      <root>
        <mxCell id="0" />
        <mxCell id="1" parent="0" />
        <mxCell id="spvVIrVOD9iuXhNW1NV7-1" value="" style="rounded=1;whiteSpace=wrap;html=1;" parent="1" vertex="1">
          <mxGeometry x="-1402" y="285" width="120" height="60" as="geometry" />
        </mxCell>
        <mxCell id="spvVIrVOD9iuXhNW1NV7-2" value="&lt;b&gt;&lt;font style=&quot;font-size: 18px;&quot;&gt;student&lt;/font&gt;&lt;/b&gt;" style="text;html=1;align=center;verticalAlign=middle;whiteSpace=wrap;rounded=0;" parent="1" vertex="1">
          <mxGeometry x="-1389" y="300" width="94" height="30" as="geometry" />
        </mxCell>
        <mxCell id="spvVIrVOD9iuXhNW1NV7-6" value="" style="endArrow=classic;html=1;rounded=0;exitX=1;exitY=0.75;exitDx=0;exitDy=0;entryX=-0.001;entryY=0.657;entryDx=0;entryDy=0;entryPerimeter=0;" parent="1" source="spvVIrVOD9iuXhNW1NV7-1" target="U3lluBPhWWUwnAGhrMjW-2" edge="1">
          <mxGeometry width="50" height="50" relative="1" as="geometry">
            <mxPoint x="-1278" y="317" as="sourcePoint" />
            <mxPoint x="-1048" y="315" as="targetPoint" />
          </mxGeometry>
        </mxCell>
        <mxCell id="spvVIrVOD9iuXhNW1NV7-24" value="&lt;b&gt;&lt;font style=&quot;font-size: 14px;&quot;&gt;Login Response&lt;/font&gt;&lt;/b&gt;" style="edgeLabel;html=1;align=center;verticalAlign=middle;resizable=0;points=[];" parent="spvVIrVOD9iuXhNW1NV7-6" vertex="1" connectable="0">
          <mxGeometry x="-0.4693" relative="1" as="geometry">
            <mxPoint x="44" as="offset" />
          </mxGeometry>
        </mxCell>
        <mxCell id="spvVIrVOD9iuXhNW1NV7-9" value="2.0" style="swimlane;fontStyle=0;childLayout=stackLayout;horizontal=1;startSize=20;fillColor=#A9C4EB;horizontalStack=0;resizeParent=1;resizeParentMax=0;resizeLast=0;collapsible=0;marginBottom=0;swimlaneFillColor=#ffffff;" parent="1" vertex="1">
          <mxGeometry x="-1043.1399999999999" y="423.52" width="123" height="91" as="geometry" />
        </mxCell>
        <mxCell id="spvVIrVOD9iuXhNW1NV7-10" value="&lt;b&gt;&lt;font style=&quot;font-size: 17px;&quot;&gt;&lt;span style=&quot;text-wrap-mode: nowrap;&quot;&gt;Complaint&amp;nbsp;&lt;/span&gt;&lt;/font&gt;&lt;/b&gt;&lt;div style=&quot;text-wrap-mode: nowrap;&quot;&gt;&lt;b&gt;&lt;font style=&quot;font-size: 17px;&quot;&gt;Management&lt;/font&gt;&lt;/b&gt;&lt;br&gt;&lt;/div&gt;" style="text;html=1;align=center;verticalAlign=middle;whiteSpace=wrap;rounded=0;" parent="spvVIrVOD9iuXhNW1NV7-9" vertex="1">
          <mxGeometry y="20" width="123" height="71" as="geometry" />
        </mxCell>
        <mxCell id="spvVIrVOD9iuXhNW1NV7-18" value="&lt;b&gt;&lt;font style=&quot;font-size: 18px;&quot;&gt;D1&lt;/font&gt;&lt;/b&gt;" style="html=1;dashed=0;whiteSpace=wrap;shape=mxgraph.dfd.dataStoreID;align=left;spacingLeft=3;points=[[0,0],[0.5,0],[1,0],[0,0.5],[1,0.5],[0,1],[0.5,1],[1,1]];fillColor=#A9C4EB;" parent="1" vertex="1">
          <mxGeometry x="-749" y="349" width="128" height="30" as="geometry" />
        </mxCell>
        <mxCell id="spvVIrVOD9iuXhNW1NV7-19" value="&lt;span style=&quot;text-align: center;&quot;&gt;&lt;b&gt;&lt;font style=&quot;font-size: 14px;&quot;&gt;User Account&lt;/font&gt;&lt;/b&gt;&lt;/span&gt;" style="text;html=1;align=left;verticalAlign=middle;whiteSpace=wrap;rounded=0;" parent="1" vertex="1">
          <mxGeometry x="-718" y="349" width="93" height="30" as="geometry" />
        </mxCell>
        <mxCell id="spvVIrVOD9iuXhNW1NV7-20" value="" style="endArrow=classic;html=1;rounded=0;entryX=0.995;entryY=0.709;entryDx=0;entryDy=0;exitX=0.25;exitY=0;exitDx=0;exitDy=0;entryPerimeter=0;" parent="1" source="spvVIrVOD9iuXhNW1NV7-19" target="U3lluBPhWWUwnAGhrMjW-2" edge="1">
          <mxGeometry width="50" height="50" relative="1" as="geometry">
            <mxPoint x="-714.1759999999999" y="294" as="sourcePoint" />
            <mxPoint x="-918" y="263.90999999999997" as="targetPoint" />
            <Array as="points">
              <mxPoint x="-695" y="334" />
            </Array>
          </mxGeometry>
        </mxCell>
        <mxCell id="spvVIrVOD9iuXhNW1NV7-23" value="&lt;b&gt;&lt;font style=&quot;font-size: 14px;&quot;&gt;Response&amp;nbsp;&lt;/font&gt;&lt;/b&gt;&lt;b style=&quot;background-color: light-dark(#ffffff, var(--ge-dark-color, #121212)); color: light-dark(rgb(0, 0, 0), rgb(255, 255, 255));&quot;&gt;&lt;font style=&quot;font-size: 14px;&quot;&gt;Authentication&lt;/font&gt;&lt;/b&gt;&lt;div&gt;&lt;div&gt;&lt;b&gt;&lt;font style=&quot;font-size: 14px;&quot;&gt;&amp;nbsp;Data&lt;/font&gt;&lt;/b&gt;&lt;/div&gt;&lt;/div&gt;" style="edgeLabel;html=1;align=center;verticalAlign=middle;resizable=0;points=[];" parent="spvVIrVOD9iuXhNW1NV7-20" vertex="1" connectable="0">
          <mxGeometry x="-0.0862" y="1" relative="1" as="geometry">
            <mxPoint x="-25" y="-5" as="offset" />
          </mxGeometry>
        </mxCell>
        <mxCell id="spvVIrVOD9iuXhNW1NV7-30" value="3.0" style="swimlane;fontStyle=0;childLayout=stackLayout;horizontal=1;startSize=20;fillColor=#A9C4EB;horizontalStack=0;resizeParent=1;resizeParentMax=0;resizeLast=0;collapsible=0;marginBottom=0;swimlaneFillColor=#ffffff;" parent="1" vertex="1">
          <mxGeometry x="-1048" y="607" width="123" height="91" as="geometry" />
        </mxCell>
        <mxCell id="spvVIrVOD9iuXhNW1NV7-31" value="&lt;b&gt;&lt;font style=&quot;font-size: 18px;&quot;&gt;&lt;span style=&quot;text-wrap-mode: nowrap;&quot;&gt;Notifications&lt;/span&gt;&lt;/font&gt;&lt;/b&gt;" style="text;html=1;align=center;verticalAlign=middle;whiteSpace=wrap;rounded=0;" parent="spvVIrVOD9iuXhNW1NV7-30" vertex="1">
          <mxGeometry y="20" width="123" height="71" as="geometry" />
        </mxCell>
        <mxCell id="spvVIrVOD9iuXhNW1NV7-33" value="4.0" style="swimlane;fontStyle=0;childLayout=stackLayout;horizontal=1;startSize=20;fillColor=#A9C4EB;horizontalStack=0;resizeParent=1;resizeParentMax=0;resizeLast=0;collapsible=0;marginBottom=0;swimlaneFillColor=#ffffff;" parent="1" vertex="1">
          <mxGeometry x="-1050.5" y="743" width="123" height="91" as="geometry" />
        </mxCell>
        <mxCell id="spvVIrVOD9iuXhNW1NV7-34" value="&lt;span style=&quot;text-wrap-mode: nowrap;&quot;&gt;&lt;b&gt;&lt;font style=&quot;font-size: 18px;&quot;&gt;Cliams&lt;/font&gt;&lt;/b&gt;&lt;/span&gt;" style="text;html=1;align=center;verticalAlign=middle;whiteSpace=wrap;rounded=0;" parent="spvVIrVOD9iuXhNW1NV7-33" vertex="1">
          <mxGeometry y="20" width="123" height="71" as="geometry" />
        </mxCell>
        <mxCell id="spvVIrVOD9iuXhNW1NV7-39" value="5.0" style="swimlane;fontStyle=0;childLayout=stackLayout;horizontal=1;startSize=20;fillColor=#A9C4EB;horizontalStack=0;resizeParent=1;resizeParentMax=0;resizeLast=0;collapsible=0;marginBottom=0;swimlaneFillColor=#ffffff;" parent="1" vertex="1">
          <mxGeometry x="-1050.5" y="900" width="123" height="91" as="geometry" />
        </mxCell>
        <mxCell id="spvVIrVOD9iuXhNW1NV7-40" value="&lt;span style=&quot;text-wrap-mode: nowrap;&quot;&gt;&lt;b&gt;&lt;font style=&quot;font-size: 18px;&quot;&gt;Management&lt;/font&gt;&lt;/b&gt;&lt;/span&gt;&lt;div&gt;&lt;span style=&quot;text-wrap-mode: nowrap;&quot;&gt;&lt;b&gt;&lt;font style=&quot;font-size: 18px;&quot;&gt;&amp;nbsp;User&lt;/font&gt;&lt;/b&gt;&lt;/span&gt;&lt;/div&gt;" style="text;html=1;align=center;verticalAlign=middle;whiteSpace=wrap;rounded=0;" parent="spvVIrVOD9iuXhNW1NV7-39" vertex="1">
          <mxGeometry y="20" width="123" height="71" as="geometry" />
        </mxCell>
        <mxCell id="spvVIrVOD9iuXhNW1NV7-67" value="&lt;b&gt;&lt;font style=&quot;font-size: 14px;&quot;&gt;D2&lt;/font&gt;&lt;/b&gt;" style="html=1;dashed=0;whiteSpace=wrap;shape=mxgraph.dfd.dataStoreID;align=left;spacingLeft=3;points=[[0,0],[0.5,0],[1,0],[0,0.5],[1,0.5],[0,1],[0.5,1],[1,1]];fillColor=#A9C4EB;" parent="1" vertex="1">
          <mxGeometry x="-852" y="551" width="128" height="30" as="geometry" />
        </mxCell>
        <mxCell id="spvVIrVOD9iuXhNW1NV7-68" value="&lt;span style=&quot;text-align: center;&quot;&gt;&lt;b&gt;&lt;font style=&quot;font-size: 14px;&quot;&gt;Complaint&lt;/font&gt;&lt;/b&gt;&lt;/span&gt;" style="text;html=1;align=left;verticalAlign=middle;whiteSpace=wrap;rounded=0;" parent="1" vertex="1">
          <mxGeometry x="-821" y="551" width="93" height="30" as="geometry" />
        </mxCell>
        <mxCell id="spvVIrVOD9iuXhNW1NV7-73" value="" style="rounded=1;whiteSpace=wrap;html=1;" parent="1" vertex="1">
          <mxGeometry x="-475" y="279" width="120" height="60" as="geometry" />
        </mxCell>
        <mxCell id="spvVIrVOD9iuXhNW1NV7-74" value="&lt;b&gt;&lt;font style=&quot;font-size: 18px;&quot;&gt;Super Admin&lt;/font&gt;&lt;/b&gt;" style="text;html=1;align=center;verticalAlign=middle;whiteSpace=wrap;rounded=0;" parent="1" vertex="1">
          <mxGeometry x="-462" y="294" width="94" height="30" as="geometry" />
        </mxCell>
        <mxCell id="spvVIrVOD9iuXhNW1NV7-76" value="" style="endArrow=classic;html=1;rounded=0;exitX=0.25;exitY=0;exitDx=0;exitDy=0;entryX=0.734;entryY=-0.005;entryDx=0;entryDy=0;entryPerimeter=0;" parent="1" source="spvVIrVOD9iuXhNW1NV7-73" target="U3lluBPhWWUwnAGhrMjW-1" edge="1">
          <mxGeometry width="50" height="50" relative="1" as="geometry">
            <mxPoint x="-427" y="273" as="sourcePoint" />
            <mxPoint x="-955.7500000000002" y="267.5" as="targetPoint" />
            <Array as="points">
              <mxPoint x="-445" y="200" />
              <mxPoint x="-956" y="200" />
            </Array>
          </mxGeometry>
        </mxCell>
        <mxCell id="spvVIrVOD9iuXhNW1NV7-77" value="&lt;b&gt;&lt;font style=&quot;font-size: 14px;&quot;&gt;Login Request&lt;/font&gt;&lt;/b&gt;" style="edgeLabel;html=1;align=center;verticalAlign=middle;resizable=0;points=[];" parent="spvVIrVOD9iuXhNW1NV7-76" vertex="1" connectable="0">
          <mxGeometry x="-0.4693" relative="1" as="geometry">
            <mxPoint x="-156" y="-1" as="offset" />
          </mxGeometry>
        </mxCell>
        <mxCell id="spvVIrVOD9iuXhNW1NV7-105" value="" style="rounded=1;whiteSpace=wrap;html=1;" parent="1" vertex="1">
          <mxGeometry x="-1389" y="892.5" width="120" height="60" as="geometry" />
        </mxCell>
        <mxCell id="spvVIrVOD9iuXhNW1NV7-106" value="&lt;b&gt;&lt;font style=&quot;font-size: 18px;&quot;&gt;Admin&lt;/font&gt;&lt;/b&gt;" style="text;html=1;align=center;verticalAlign=middle;whiteSpace=wrap;rounded=0;" parent="1" vertex="1">
          <mxGeometry x="-1376" y="907.5" width="94" height="30" as="geometry" />
        </mxCell>
        <mxCell id="U3lluBPhWWUwnAGhrMjW-1" value="1.0" style="swimlane;fontStyle=0;childLayout=stackLayout;horizontal=1;startSize=20;fillColor=#A9C4EB;horizontalStack=0;resizeParent=1;resizeParentMax=0;resizeLast=0;collapsible=0;marginBottom=0;swimlaneFillColor=#ffffff;" parent="1" vertex="1">
          <mxGeometry x="-1046" y="263.5" width="123" height="91" as="geometry" />
        </mxCell>
        <mxCell id="U3lluBPhWWUwnAGhrMjW-2" value="&lt;div style=&quot;text-wrap-mode: nowrap;&quot;&gt;&lt;b style=&quot;text-wrap-mode: wrap;&quot;&gt;&lt;font style=&quot;font-size: 17px;&quot;&gt;Authentication&lt;/font&gt;&lt;/b&gt;&lt;/div&gt;" style="text;html=1;align=center;verticalAlign=middle;whiteSpace=wrap;rounded=0;" parent="U3lluBPhWWUwnAGhrMjW-1" vertex="1">
          <mxGeometry y="20" width="123" height="71" as="geometry" />
        </mxCell>
        <mxCell id="U3lluBPhWWUwnAGhrMjW-4" value="" style="endArrow=classic;html=1;rounded=0;entryX=0.25;entryY=1;entryDx=0;entryDy=0;exitX=0;exitY=0;exitDx=0;exitDy=0;" parent="1" source="spvVIrVOD9iuXhNW1NV7-9" target="spvVIrVOD9iuXhNW1NV7-1" edge="1">
          <mxGeometry width="50" height="50" relative="1" as="geometry">
            <mxPoint x="-1044" y="424" as="sourcePoint" />
            <mxPoint x="-1259" y="342" as="targetPoint" />
            <Array as="points">
              <mxPoint x="-1373" y="427" />
            </Array>
          </mxGeometry>
        </mxCell>
        <mxCell id="U3lluBPhWWUwnAGhrMjW-24" value="&lt;b&gt;&lt;font style=&quot;font-size: 14px;&quot;&gt;Show Complaint&lt;/font&gt;&lt;/b&gt;" style="edgeLabel;html=1;align=center;verticalAlign=middle;resizable=0;points=[];" parent="U3lluBPhWWUwnAGhrMjW-4" vertex="1" connectable="0">
          <mxGeometry x="0.1132" y="1" relative="1" as="geometry">
            <mxPoint x="83" y="-1" as="offset" />
          </mxGeometry>
        </mxCell>
        <mxCell id="U3lluBPhWWUwnAGhrMjW-5" value="" style="endArrow=classic;html=1;rounded=0;exitX=0.75;exitY=0;exitDx=0;exitDy=0;entryX=1;entryY=0.25;entryDx=0;entryDy=0;" parent="1" source="spvVIrVOD9iuXhNW1NV7-68" target="spvVIrVOD9iuXhNW1NV7-10" edge="1">
          <mxGeometry width="50" height="50" relative="1" as="geometry">
            <mxPoint x="-1143.1399999999999" y="458.02" as="sourcePoint" />
            <mxPoint x="-1093.1399999999999" y="408.02" as="targetPoint" />
            <Array as="points">
              <mxPoint x="-752" y="461" />
            </Array>
          </mxGeometry>
        </mxCell>
        <mxCell id="U3lluBPhWWUwnAGhrMjW-23" value="&lt;b&gt;&lt;font style=&quot;font-size: 14px;&quot;&gt;Response&amp;nbsp;&lt;/font&gt;&lt;/b&gt;&lt;div&gt;&lt;b&gt;&lt;font style=&quot;font-size: 14px;&quot;&gt;Complain&lt;/font&gt;&lt;/b&gt;&lt;/div&gt;" style="edgeLabel;html=1;align=center;verticalAlign=middle;resizable=0;points=[];" parent="U3lluBPhWWUwnAGhrMjW-5" vertex="1" connectable="0">
          <mxGeometry x="0.5073" y="1" relative="1" as="geometry">
            <mxPoint x="35" y="-2" as="offset" />
          </mxGeometry>
        </mxCell>
        <mxCell id="U3lluBPhWWUwnAGhrMjW-6" value="" style="endArrow=classic;html=1;rounded=0;exitX=1;exitY=0.75;exitDx=0;exitDy=0;entryX=0.02;entryY=0.008;entryDx=0;entryDy=0;entryPerimeter=0;" parent="1" source="spvVIrVOD9iuXhNW1NV7-10" target="spvVIrVOD9iuXhNW1NV7-68" edge="1">
          <mxGeometry width="50" height="50" relative="1" as="geometry">
            <mxPoint x="-1143.1399999999999" y="458.02" as="sourcePoint" />
            <mxPoint x="-1093.1399999999999" y="408.02" as="targetPoint" />
            <Array as="points">
              <mxPoint x="-818" y="497" />
            </Array>
          </mxGeometry>
        </mxCell>
        <mxCell id="U3lluBPhWWUwnAGhrMjW-22" value="&lt;b&gt;&lt;font style=&quot;font-size: 14px;&quot;&gt;Stored Complaint&lt;/font&gt;&lt;/b&gt;" style="edgeLabel;html=1;align=center;verticalAlign=middle;resizable=0;points=[];" parent="U3lluBPhWWUwnAGhrMjW-6" vertex="1" connectable="0">
          <mxGeometry x="-0.2387" relative="1" as="geometry">
            <mxPoint x="23" y="18" as="offset" />
          </mxGeometry>
        </mxCell>
        <mxCell id="U3lluBPhWWUwnAGhrMjW-7" value="" style="endArrow=classic;html=1;rounded=0;entryX=0;entryY=0.25;entryDx=0;entryDy=0;exitX=0;exitY=0.25;exitDx=0;exitDy=0;" parent="1" source="spvVIrVOD9iuXhNW1NV7-105" edge="1">
          <mxGeometry width="50" height="50" relative="1" as="geometry">
            <mxPoint x="-1458" y="918" as="sourcePoint" />
            <mxPoint x="-1038" y="263" as="targetPoint" />
            <Array as="points">
              <mxPoint x="-1524" y="908" />
              <mxPoint x="-1524" y="212" />
              <mxPoint x="-1039" y="208" />
            </Array>
          </mxGeometry>
        </mxCell>
        <mxCell id="U3lluBPhWWUwnAGhrMjW-21" value="&lt;b&gt;&lt;font style=&quot;font-size: 14px;&quot;&gt;Login Request&lt;/font&gt;&lt;/b&gt;" style="edgeLabel;html=1;align=center;verticalAlign=middle;resizable=0;points=[];" parent="U3lluBPhWWUwnAGhrMjW-7" vertex="1" connectable="0">
          <mxGeometry x="0.5964" y="-4" relative="1" as="geometry">
            <mxPoint x="-8" y="-1" as="offset" />
          </mxGeometry>
        </mxCell>
        <mxCell id="U3lluBPhWWUwnAGhrMjW-8" value="" style="endArrow=classic;html=1;rounded=0;exitX=0.25;exitY=0;exitDx=0;exitDy=0;entryX=-0.007;entryY=0.57;entryDx=0;entryDy=0;entryPerimeter=0;" parent="1" source="U3lluBPhWWUwnAGhrMjW-1" target="spvVIrVOD9iuXhNW1NV7-105" edge="1">
          <mxGeometry width="50" height="50" relative="1" as="geometry">
            <mxPoint x="-1030" y="130" as="sourcePoint" />
            <mxPoint x="-1467" y="850" as="targetPoint" />
            <Array as="points">
              <mxPoint x="-1015" y="181" />
              <mxPoint x="-1557" y="185" />
              <mxPoint x="-1559" y="927" />
            </Array>
          </mxGeometry>
        </mxCell>
        <mxCell id="U3lluBPhWWUwnAGhrMjW-20" value="&lt;b&gt;&lt;font style=&quot;font-size: 14px;&quot;&gt;Login Request&lt;/font&gt;&lt;/b&gt;" style="edgeLabel;html=1;align=center;verticalAlign=middle;resizable=0;points=[];" parent="U3lluBPhWWUwnAGhrMjW-8" vertex="1" connectable="0">
          <mxGeometry x="-0.5534" y="-2" relative="1" as="geometry">
            <mxPoint as="offset" />
          </mxGeometry>
        </mxCell>
        <mxCell id="U3lluBPhWWUwnAGhrMjW-9" value="" style="endArrow=classic;html=1;rounded=0;exitX=1;exitY=0;exitDx=0;exitDy=0;entryX=0.922;entryY=0.008;entryDx=0;entryDy=0;entryPerimeter=0;" parent="1" source="U3lluBPhWWUwnAGhrMjW-2" target="spvVIrVOD9iuXhNW1NV7-19" edge="1">
          <mxGeometry width="50" height="50" relative="1" as="geometry">
            <mxPoint x="-854" y="302" as="sourcePoint" />
            <mxPoint x="-804" y="252" as="targetPoint" />
            <Array as="points">
              <mxPoint x="-632" y="286" />
            </Array>
          </mxGeometry>
        </mxCell>
        <mxCell id="U3lluBPhWWUwnAGhrMjW-13" value="&lt;b&gt;&lt;font style=&quot;font-size: 14px;&quot;&gt;Authentication&amp;nbsp;&lt;/font&gt;&lt;/b&gt;&lt;b style=&quot;background-color: light-dark(#ffffff, var(--ge-dark-color, #121212)); color: light-dark(rgb(0, 0, 0), rgb(255, 255, 255));&quot;&gt;&lt;font style=&quot;font-size: 14px;&quot;&gt;Data&lt;/font&gt;&lt;/b&gt;" style="edgeLabel;html=1;align=center;verticalAlign=middle;resizable=0;points=[];" parent="U3lluBPhWWUwnAGhrMjW-9" vertex="1" connectable="0">
          <mxGeometry x="0.1103" relative="1" as="geometry">
            <mxPoint x="-89" y="-2" as="offset" />
          </mxGeometry>
        </mxCell>
        <mxCell id="U3lluBPhWWUwnAGhrMjW-10" value="" style="endArrow=classic;html=1;rounded=0;exitX=0.491;exitY=0;exitDx=0;exitDy=0;exitPerimeter=0;entryX=0.5;entryY=0;entryDx=0;entryDy=0;" parent="1" source="U3lluBPhWWUwnAGhrMjW-1" target="spvVIrVOD9iuXhNW1NV7-73" edge="1">
          <mxGeometry width="50" height="50" relative="1" as="geometry">
            <mxPoint x="-988" y="259" as="sourcePoint" />
            <mxPoint x="-389" y="181" as="targetPoint" />
            <Array as="points">
              <mxPoint x="-985" y="178" />
              <mxPoint x="-417" y="177" />
            </Array>
          </mxGeometry>
        </mxCell>
        <mxCell id="U3lluBPhWWUwnAGhrMjW-11" value="&lt;b&gt;&lt;font style=&quot;font-size: 14px;&quot;&gt;Login Response&lt;/font&gt;&lt;/b&gt;" style="edgeLabel;html=1;align=center;verticalAlign=middle;resizable=0;points=[];" parent="U3lluBPhWWUwnAGhrMjW-10" vertex="1" connectable="0">
          <mxGeometry x="-0.0304" y="1" relative="1" as="geometry">
            <mxPoint as="offset" />
          </mxGeometry>
        </mxCell>
        <mxCell id="U3lluBPhWWUwnAGhrMjW-14" value="" style="endArrow=classic;html=1;rounded=0;exitX=0.002;exitY=0.225;exitDx=0;exitDy=0;entryX=1;entryY=0.25;entryDx=0;entryDy=0;exitPerimeter=0;" parent="1" source="U3lluBPhWWUwnAGhrMjW-2" target="spvVIrVOD9iuXhNW1NV7-1" edge="1">
          <mxGeometry width="50" height="50" relative="1" as="geometry">
            <mxPoint x="-1206" y="323" as="sourcePoint" />
            <mxPoint x="-1156" y="273" as="targetPoint" />
          </mxGeometry>
        </mxCell>
        <mxCell id="U3lluBPhWWUwnAGhrMjW-15" value="&lt;b&gt;&lt;font style=&quot;font-size: 14px;&quot;&gt;Login Response&lt;/font&gt;&lt;/b&gt;" style="edgeLabel;html=1;align=center;verticalAlign=middle;resizable=0;points=[];" parent="U3lluBPhWWUwnAGhrMjW-14" vertex="1" connectable="0">
          <mxGeometry x="0.2006" y="1" relative="1" as="geometry">
            <mxPoint x="13" y="-1" as="offset" />
          </mxGeometry>
        </mxCell>
        <mxCell id="U3lluBPhWWUwnAGhrMjW-25" value="" style="endArrow=classic;html=1;rounded=0;entryX=0.834;entryY=0.004;entryDx=0;entryDy=0;entryPerimeter=0;exitX=0.845;exitY=1.008;exitDx=0;exitDy=0;exitPerimeter=0;" parent="1" source="spvVIrVOD9iuXhNW1NV7-1" target="spvVIrVOD9iuXhNW1NV7-9" edge="1">
          <mxGeometry width="50" height="50" relative="1" as="geometry">
            <mxPoint x="-1302" y="345" as="sourcePoint" />
            <mxPoint x="-1185" y="376" as="targetPoint" />
            <Array as="points">
              <mxPoint x="-1301" y="387" />
              <mxPoint x="-941" y="386" />
            </Array>
          </mxGeometry>
        </mxCell>
        <mxCell id="U3lluBPhWWUwnAGhrMjW-26" value="&lt;b&gt;&lt;font style=&quot;font-size: 14px;&quot;&gt;Action&amp;nbsp;&lt;span style=&quot;background-color: light-dark(#ffffff, var(--ge-dark-color, #121212)); color: light-dark(rgb(0, 0, 0), rgb(255, 255, 255));&quot;&gt;and&amp;nbsp;&lt;/span&gt;&lt;/font&gt;&lt;/b&gt;&lt;b style=&quot;color: light-dark(rgb(0, 0, 0), rgb(255, 255, 255));&quot;&gt;&lt;font style=&quot;font-size: 14px;&quot;&gt;Comments&lt;/font&gt;&lt;/b&gt;" style="edgeLabel;html=1;align=center;verticalAlign=middle;resizable=0;points=[];" parent="U3lluBPhWWUwnAGhrMjW-25" vertex="1" connectable="0">
          <mxGeometry x="0.1655" y="-1" relative="1" as="geometry">
            <mxPoint x="-10" as="offset" />
          </mxGeometry>
        </mxCell>
        <mxCell id="U3lluBPhWWUwnAGhrMjW-27" value="" style="endArrow=classic;html=1;rounded=0;exitX=0;exitY=0.25;exitDx=0;exitDy=0;entryX=0;entryY=0.75;entryDx=0;entryDy=0;" parent="1" source="spvVIrVOD9iuXhNW1NV7-10" target="spvVIrVOD9iuXhNW1NV7-1" edge="1">
          <mxGeometry width="50" height="50" relative="1" as="geometry">
            <mxPoint x="-1425" y="479" as="sourcePoint" />
            <mxPoint x="-1449" y="292" as="targetPoint" />
            <Array as="points">
              <mxPoint x="-1430" y="465" />
              <mxPoint x="-1428" y="330" />
            </Array>
          </mxGeometry>
        </mxCell>
        <mxCell id="U3lluBPhWWUwnAGhrMjW-28" value="&lt;b&gt;&lt;font style=&quot;font-size: 13px;&quot;&gt;Complaint&amp;nbsp;&lt;/font&gt;&lt;/b&gt;&lt;b style=&quot;background-color: light-dark(#ffffff, var(--ge-dark-color, #121212)); color: light-dark(rgb(0, 0, 0), rgb(255, 255, 255));&quot;&gt;&lt;font style=&quot;font-size: 13px;&quot;&gt;Submission&lt;/font&gt;&lt;/b&gt;" style="edgeLabel;html=1;align=center;verticalAlign=middle;resizable=0;points=[];" parent="U3lluBPhWWUwnAGhrMjW-27" vertex="1" connectable="0">
          <mxGeometry x="-0.1741" relative="1" as="geometry">
            <mxPoint x="-51" y="1" as="offset" />
          </mxGeometry>
        </mxCell>
        <mxCell id="U3lluBPhWWUwnAGhrMjW-29" value="" style="endArrow=classic;html=1;rounded=0;exitX=0;exitY=1;exitDx=0;exitDy=0;entryX=0.696;entryY=0;entryDx=0;entryDy=0;entryPerimeter=0;" parent="1" source="spvVIrVOD9iuXhNW1NV7-10" target="spvVIrVOD9iuXhNW1NV7-105" edge="1">
          <mxGeometry width="50" height="50" relative="1" as="geometry">
            <mxPoint x="-1189" y="767" as="sourcePoint" />
            <mxPoint x="-1305" y="892" as="targetPoint" />
            <Array as="points">
              <mxPoint x="-1305" y="517" />
            </Array>
          </mxGeometry>
        </mxCell>
        <mxCell id="U3lluBPhWWUwnAGhrMjW-32" value="&lt;b&gt;&lt;font style=&quot;font-size: 14px;&quot;&gt;Show&amp;nbsp;&lt;/font&gt;&lt;/b&gt;&lt;div&gt;&lt;b&gt;&lt;font style=&quot;font-size: 14px;&quot;&gt;Complaint&lt;/font&gt;&lt;/b&gt;&lt;/div&gt;" style="edgeLabel;html=1;align=center;verticalAlign=middle;resizable=0;points=[];" parent="U3lluBPhWWUwnAGhrMjW-29" vertex="1" connectable="0">
          <mxGeometry x="0.0428" relative="1" as="geometry">
            <mxPoint x="-5" y="40" as="offset" />
          </mxGeometry>
        </mxCell>
        <mxCell id="U3lluBPhWWUwnAGhrMjW-30" value="" style="endArrow=classic;html=1;rounded=0;exitX=0.25;exitY=0;exitDx=0;exitDy=0;entryX=0;entryY=0.75;entryDx=0;entryDy=0;" parent="1" source="spvVIrVOD9iuXhNW1NV7-105" target="spvVIrVOD9iuXhNW1NV7-10" edge="1">
          <mxGeometry width="50" height="50" relative="1" as="geometry">
            <mxPoint x="-1189" y="662" as="sourcePoint" />
            <mxPoint x="-1139" y="612" as="targetPoint" />
            <Array as="points">
              <mxPoint x="-1357" y="498" />
            </Array>
          </mxGeometry>
        </mxCell>
        <mxCell id="U3lluBPhWWUwnAGhrMjW-31" value="&lt;b&gt;&lt;font style=&quot;font-size: 14px;&quot;&gt;Action and&amp;nbsp;&lt;/font&gt;&lt;/b&gt;&lt;b style=&quot;background-color: light-dark(#ffffff, var(--ge-dark-color, #121212)); color: light-dark(rgb(0, 0, 0), rgb(255, 255, 255));&quot;&gt;&lt;font style=&quot;font-size: 14px;&quot;&gt;Comments&lt;/font&gt;&lt;/b&gt;" style="edgeLabel;html=1;align=center;verticalAlign=middle;resizable=0;points=[];" parent="U3lluBPhWWUwnAGhrMjW-30" vertex="1" connectable="0">
          <mxGeometry x="0.3844" relative="1" as="geometry">
            <mxPoint x="17" y="-1" as="offset" />
          </mxGeometry>
        </mxCell>
        <mxCell id="U3lluBPhWWUwnAGhrMjW-33" value="" style="endArrow=classic;html=1;rounded=0;exitX=0.47;exitY=1.035;exitDx=0;exitDy=0;entryX=0.5;entryY=0;entryDx=0;entryDy=0;exitPerimeter=0;" parent="1" source="spvVIrVOD9iuXhNW1NV7-10" target="spvVIrVOD9iuXhNW1NV7-30" edge="1">
          <mxGeometry width="50" height="50" relative="1" as="geometry">
            <mxPoint x="-1235" y="587" as="sourcePoint" />
            <mxPoint x="-1281" y="696" as="targetPoint" />
            <Array as="points" />
          </mxGeometry>
        </mxCell>
        <mxCell id="U3lluBPhWWUwnAGhrMjW-34" value="&lt;b&gt;&lt;font style=&quot;font-size: 14px;&quot;&gt;Complaint&amp;nbsp;&lt;/font&gt;&lt;/b&gt;&lt;div&gt;&lt;b&gt;&lt;font style=&quot;font-size: 14px;&quot;&gt;Submission&lt;/font&gt;&lt;/b&gt;&lt;/div&gt;" style="edgeLabel;html=1;align=center;verticalAlign=middle;resizable=0;points=[];" parent="U3lluBPhWWUwnAGhrMjW-33" vertex="1" connectable="0">
          <mxGeometry x="0.2024" y="-1" relative="1" as="geometry">
            <mxPoint x="3" y="-21" as="offset" />
          </mxGeometry>
        </mxCell>
        <mxCell id="U3lluBPhWWUwnAGhrMjW-35" value="" style="endArrow=classic;html=1;rounded=0;exitX=1;exitY=0;exitDx=0;exitDy=0;entryX=0.25;entryY=1;entryDx=0;entryDy=0;" parent="1" source="spvVIrVOD9iuXhNW1NV7-10" target="spvVIrVOD9iuXhNW1NV7-73" edge="1">
          <mxGeometry width="50" height="50" relative="1" as="geometry">
            <mxPoint x="-1283" y="440" as="sourcePoint" />
            <mxPoint x="-1233" y="390" as="targetPoint" />
            <Array as="points">
              <mxPoint x="-445" y="442" />
            </Array>
          </mxGeometry>
        </mxCell>
        <mxCell id="U3lluBPhWWUwnAGhrMjW-36" value="&lt;b&gt;&lt;font style=&quot;font-size: 14px;&quot;&gt;Assignee&lt;/font&gt;&lt;/b&gt;" style="edgeLabel;html=1;align=center;verticalAlign=middle;resizable=0;points=[];" parent="U3lluBPhWWUwnAGhrMjW-35" vertex="1" connectable="0">
          <mxGeometry x="0.1564" relative="1" as="geometry">
            <mxPoint as="offset" />
          </mxGeometry>
        </mxCell>
        <mxCell id="U3lluBPhWWUwnAGhrMjW-37" value="" style="endArrow=classic;html=1;rounded=0;exitX=0;exitY=0.5;exitDx=0;exitDy=0;entryX=0;entryY=0.25;entryDx=0;entryDy=0;" parent="1" source="spvVIrVOD9iuXhNW1NV7-31" target="spvVIrVOD9iuXhNW1NV7-1" edge="1">
          <mxGeometry width="50" height="50" relative="1" as="geometry">
            <mxPoint x="-993" y="622" as="sourcePoint" />
            <mxPoint x="-1444" y="501" as="targetPoint" />
            <Array as="points">
              <mxPoint x="-1450" y="666" />
              <mxPoint x="-1448" y="301" />
            </Array>
          </mxGeometry>
        </mxCell>
        <mxCell id="U3lluBPhWWUwnAGhrMjW-38" value="&lt;b&gt;&lt;font style=&quot;font-size: 14px;&quot;&gt;Response Notification&lt;/font&gt;&lt;/b&gt;" style="edgeLabel;html=1;align=center;verticalAlign=middle;resizable=0;points=[];" parent="U3lluBPhWWUwnAGhrMjW-37" vertex="1" connectable="0">
          <mxGeometry x="-0.6708" y="-2" relative="1" as="geometry">
            <mxPoint x="25" y="-1" as="offset" />
          </mxGeometry>
        </mxCell>
        <mxCell id="U3lluBPhWWUwnAGhrMjW-39" value="" style="endArrow=classic;html=1;rounded=0;exitX=-0.01;exitY=0.809;exitDx=0;exitDy=0;entryX=1.002;entryY=0.133;entryDx=0;entryDy=0;exitPerimeter=0;entryPerimeter=0;" parent="1" source="spvVIrVOD9iuXhNW1NV7-31" target="spvVIrVOD9iuXhNW1NV7-105" edge="1">
          <mxGeometry width="50" height="50" relative="1" as="geometry">
            <mxPoint x="-1364" y="779" as="sourcePoint" />
            <mxPoint x="-1314" y="729" as="targetPoint" />
            <Array as="points">
              <mxPoint x="-1268" y="686" />
            </Array>
          </mxGeometry>
        </mxCell>
        <mxCell id="U3lluBPhWWUwnAGhrMjW-40" value="&lt;b&gt;&lt;font style=&quot;font-size: 14px;&quot;&gt;Response Notification&lt;/font&gt;&lt;/b&gt;" style="edgeLabel;html=1;align=center;verticalAlign=middle;resizable=0;points=[];" parent="U3lluBPhWWUwnAGhrMjW-39" vertex="1" connectable="0">
          <mxGeometry x="-0.4365" y="-1" relative="1" as="geometry">
            <mxPoint x="16" y="4" as="offset" />
          </mxGeometry>
        </mxCell>
        <mxCell id="U3lluBPhWWUwnAGhrMjW-42" value="&lt;b&gt;&lt;font style=&quot;font-size: 14px;&quot;&gt;D3&lt;/font&gt;&lt;/b&gt;" style="html=1;dashed=0;whiteSpace=wrap;shape=mxgraph.dfd.dataStoreID;align=left;spacingLeft=3;points=[[0,0],[0.5,0],[1,0],[0,0.5],[1,0.5],[0,1],[0.5,1],[1,1]];fillColor=#A9C4EB;" parent="1" vertex="1">
          <mxGeometry x="-852" y="716" width="128" height="30" as="geometry" />
        </mxCell>
        <mxCell id="U3lluBPhWWUwnAGhrMjW-43" value="&lt;span style=&quot;text-align: center;&quot;&gt;&lt;b&gt;&lt;font style=&quot;font-size: 14px;&quot;&gt;Notification&lt;/font&gt;&lt;/b&gt;&lt;/span&gt;" style="text;html=1;align=left;verticalAlign=middle;whiteSpace=wrap;rounded=0;" parent="1" vertex="1">
          <mxGeometry x="-821" y="716" width="93" height="30" as="geometry" />
        </mxCell>
        <mxCell id="U3lluBPhWWUwnAGhrMjW-44" value="" style="endArrow=classic;html=1;rounded=0;exitX=1;exitY=0.75;exitDx=0;exitDy=0;entryX=0.25;entryY=0;entryDx=0;entryDy=0;" parent="1" source="spvVIrVOD9iuXhNW1NV7-31" target="U3lluBPhWWUwnAGhrMjW-43" edge="1">
          <mxGeometry width="50" height="50" relative="1" as="geometry">
            <mxPoint x="-834" y="710" as="sourcePoint" />
            <mxPoint x="-784" y="660" as="targetPoint" />
            <Array as="points">
              <mxPoint x="-796" y="680" />
            </Array>
          </mxGeometry>
        </mxCell>
        <mxCell id="U3lluBPhWWUwnAGhrMjW-45" value="&lt;b&gt;&lt;font style=&quot;font-size: 14px;&quot;&gt;Response&lt;/font&gt;&lt;/b&gt;&lt;div&gt;&lt;b&gt;&lt;font style=&quot;font-size: 14px;&quot;&gt;&amp;nbsp;Notification&lt;/font&gt;&lt;/b&gt;&lt;/div&gt;" style="edgeLabel;html=1;align=center;verticalAlign=middle;resizable=0;points=[];" parent="U3lluBPhWWUwnAGhrMjW-44" vertex="1" connectable="0">
          <mxGeometry x="-0.2767" y="2" relative="1" as="geometry">
            <mxPoint as="offset" />
          </mxGeometry>
        </mxCell>
        <mxCell id="U3lluBPhWWUwnAGhrMjW-46" value="&lt;b&gt;&lt;font style=&quot;font-size: 14px;&quot;&gt;D4&lt;/font&gt;&lt;/b&gt;" style="html=1;dashed=0;whiteSpace=wrap;shape=mxgraph.dfd.dataStoreID;align=left;spacingLeft=3;points=[[0,0],[0.5,0],[1,0],[0,0.5],[1,0.5],[0,1],[0.5,1],[1,1]];fillColor=#A9C4EB;" parent="1" vertex="1">
          <mxGeometry x="-846" y="854" width="128" height="30" as="geometry" />
        </mxCell>
        <mxCell id="U3lluBPhWWUwnAGhrMjW-47" value="&lt;span style=&quot;text-align: center;&quot;&gt;&lt;b&gt;&lt;font style=&quot;font-size: 14px;&quot;&gt;Cliams&lt;/font&gt;&lt;/b&gt;&lt;/span&gt;" style="text;html=1;align=left;verticalAlign=middle;whiteSpace=wrap;rounded=0;" parent="1" vertex="1">
          <mxGeometry x="-815" y="854" width="93" height="30" as="geometry" />
        </mxCell>
        <mxCell id="U3lluBPhWWUwnAGhrMjW-48" value="&lt;b&gt;&lt;font style=&quot;font-size: 14px;&quot;&gt;D5&lt;/font&gt;&lt;/b&gt;" style="html=1;dashed=0;whiteSpace=wrap;shape=mxgraph.dfd.dataStoreID;align=left;spacingLeft=3;points=[[0,0],[0.5,0],[1,0],[0,0.5],[1,0.5],[0,1],[0.5,1],[1,1]];fillColor=#A9C4EB;" parent="1" vertex="1">
          <mxGeometry x="-846" y="1047" width="128" height="30" as="geometry" />
        </mxCell>
        <mxCell id="U3lluBPhWWUwnAGhrMjW-49" value="&lt;span style=&quot;text-align: center;&quot;&gt;&lt;b&gt;&lt;font style=&quot;font-size: 14px;&quot;&gt;Role&lt;/font&gt;&lt;/b&gt;&lt;/span&gt;" style="text;html=1;align=left;verticalAlign=middle;whiteSpace=wrap;rounded=0;" parent="1" vertex="1">
          <mxGeometry x="-815" y="1047" width="93" height="30" as="geometry" />
        </mxCell>
        <mxCell id="U3lluBPhWWUwnAGhrMjW-50" value="" style="endArrow=classic;html=1;rounded=0;exitX=1;exitY=0.75;exitDx=0;exitDy=0;entryX=0.25;entryY=0;entryDx=0;entryDy=0;" parent="1" source="spvVIrVOD9iuXhNW1NV7-34" target="U3lluBPhWWUwnAGhrMjW-47" edge="1">
          <mxGeometry width="50" height="50" relative="1" as="geometry">
            <mxPoint x="-824" y="976" as="sourcePoint" />
            <mxPoint x="-774" y="926" as="targetPoint" />
            <Array as="points">
              <mxPoint x="-792" y="817" />
            </Array>
          </mxGeometry>
        </mxCell>
        <mxCell id="U3lluBPhWWUwnAGhrMjW-54" value="&lt;b&gt;&lt;font style=&quot;font-size: 14px;&quot;&gt;Response&amp;nbsp;&lt;/font&gt;&lt;/b&gt;&lt;div&gt;&lt;b&gt;&lt;font style=&quot;font-size: 14px;&quot;&gt;Cliams&lt;/font&gt;&lt;/b&gt;&lt;/div&gt;" style="edgeLabel;html=1;align=center;verticalAlign=middle;resizable=0;points=[];" parent="U3lluBPhWWUwnAGhrMjW-50" vertex="1" connectable="0">
          <mxGeometry x="-0.3163" relative="1" as="geometry">
            <mxPoint as="offset" />
          </mxGeometry>
        </mxCell>
        <mxCell id="U3lluBPhWWUwnAGhrMjW-51" value="" style="endArrow=classic;html=1;rounded=0;entryX=1.003;entryY=0.351;entryDx=0;entryDy=0;entryPerimeter=0;exitX=0.75;exitY=0;exitDx=0;exitDy=0;" parent="1" source="U3lluBPhWWUwnAGhrMjW-47" target="spvVIrVOD9iuXhNW1NV7-34" edge="1">
          <mxGeometry width="50" height="50" relative="1" as="geometry">
            <mxPoint x="-765" y="870" as="sourcePoint" />
            <mxPoint x="-715" y="820" as="targetPoint" />
            <Array as="points">
              <mxPoint x="-745" y="788" />
            </Array>
          </mxGeometry>
        </mxCell>
        <mxCell id="U3lluBPhWWUwnAGhrMjW-53" value="&lt;b&gt;&lt;font style=&quot;font-size: 14px;&quot;&gt;Add Cliams&lt;/font&gt;&lt;/b&gt;" style="edgeLabel;html=1;align=center;verticalAlign=middle;resizable=0;points=[];" parent="U3lluBPhWWUwnAGhrMjW-51" vertex="1" connectable="0">
          <mxGeometry x="-0.5872" y="1" relative="1" as="geometry">
            <mxPoint x="6" as="offset" />
          </mxGeometry>
        </mxCell>
        <mxCell id="U3lluBPhWWUwnAGhrMjW-55" value="" style="endArrow=classic;html=1;rounded=0;exitX=0;exitY=0.25;exitDx=0;exitDy=0;entryX=0.25;entryY=0;entryDx=0;entryDy=0;" parent="1" source="spvVIrVOD9iuXhNW1NV7-34" target="spvVIrVOD9iuXhNW1NV7-1" edge="1">
          <mxGeometry width="50" height="50" relative="1" as="geometry">
            <mxPoint x="-1069" y="574" as="sourcePoint" />
            <mxPoint x="-1366" y="244" as="targetPoint" />
            <Array as="points">
              <mxPoint x="-1494" y="785" />
              <mxPoint x="-1494" y="268" />
              <mxPoint x="-1372" y="267" />
            </Array>
          </mxGeometry>
        </mxCell>
        <mxCell id="U3lluBPhWWUwnAGhrMjW-56" value="&lt;b&gt;&lt;font style=&quot;font-size: 14px;&quot;&gt;New Cliams&lt;/font&gt;&lt;/b&gt;" style="edgeLabel;html=1;align=center;verticalAlign=middle;resizable=0;points=[];" parent="U3lluBPhWWUwnAGhrMjW-55" vertex="1" connectable="0">
          <mxGeometry x="-0.8232" y="2" relative="1" as="geometry">
            <mxPoint as="offset" />
          </mxGeometry>
        </mxCell>
        <mxCell id="U3lluBPhWWUwnAGhrMjW-57" value="" style="endArrow=classic;html=1;rounded=0;exitX=0.5;exitY=1;exitDx=0;exitDy=0;entryX=1;entryY=0;entryDx=0;entryDy=0;" parent="1" source="spvVIrVOD9iuXhNW1NV7-73" target="spvVIrVOD9iuXhNW1NV7-34" edge="1">
          <mxGeometry width="50" height="50" relative="1" as="geometry">
            <mxPoint x="-707" y="699" as="sourcePoint" />
            <mxPoint x="-657" y="649" as="targetPoint" />
            <Array as="points">
              <mxPoint x="-415" y="769" />
            </Array>
          </mxGeometry>
        </mxCell>
        <mxCell id="U3lluBPhWWUwnAGhrMjW-58" value="&lt;b&gt;&lt;font style=&quot;font-size: 14px;&quot;&gt;Add Claims&lt;/font&gt;&lt;/b&gt;" style="edgeLabel;html=1;align=center;verticalAlign=middle;resizable=0;points=[];" parent="U3lluBPhWWUwnAGhrMjW-57" vertex="1" connectable="0">
          <mxGeometry x="0.2225" y="-1" relative="1" as="geometry">
            <mxPoint as="offset" />
          </mxGeometry>
        </mxCell>
        <mxCell id="U3lluBPhWWUwnAGhrMjW-59" value="" style="endArrow=classic;html=1;rounded=0;exitX=0;exitY=0.75;exitDx=0;exitDy=0;entryX=1;entryY=0.5;entryDx=0;entryDy=0;" parent="1" source="spvVIrVOD9iuXhNW1NV7-34" target="spvVIrVOD9iuXhNW1NV7-105" edge="1">
          <mxGeometry width="50" height="50" relative="1" as="geometry">
            <mxPoint x="-732" y="769" as="sourcePoint" />
            <mxPoint x="-682" y="719" as="targetPoint" />
            <Array as="points">
              <mxPoint x="-1195" y="819" />
              <mxPoint x="-1197" y="921" />
            </Array>
          </mxGeometry>
        </mxCell>
        <mxCell id="U3lluBPhWWUwnAGhrMjW-62" value="&lt;b&gt;&lt;font style=&quot;font-size: 14px;&quot;&gt;Add Claims&lt;/font&gt;&lt;/b&gt;" style="edgeLabel;html=1;align=center;verticalAlign=middle;resizable=0;points=[];" parent="U3lluBPhWWUwnAGhrMjW-59" vertex="1" connectable="0">
          <mxGeometry x="0.2685" y="1" relative="1" as="geometry">
            <mxPoint as="offset" />
          </mxGeometry>
        </mxCell>
        <mxCell id="U3lluBPhWWUwnAGhrMjW-64" value="" style="endArrow=classic;html=1;rounded=0;exitX=0.75;exitY=1;exitDx=0;exitDy=0;entryX=1;entryY=0.25;entryDx=0;entryDy=0;" parent="1" source="spvVIrVOD9iuXhNW1NV7-73" target="spvVIrVOD9iuXhNW1NV7-39" edge="1">
          <mxGeometry width="50" height="50" relative="1" as="geometry">
            <mxPoint x="-342" y="366" as="sourcePoint" />
            <mxPoint x="-929" y="991" as="targetPoint" />
            <Array as="points">
              <mxPoint x="-382" y="923" />
            </Array>
          </mxGeometry>
        </mxCell>
        <mxCell id="U3lluBPhWWUwnAGhrMjW-71" value="&lt;b&gt;&lt;font style=&quot;font-size: 14px;&quot;&gt;Add Role&lt;/font&gt;&lt;/b&gt;" style="edgeLabel;html=1;align=center;verticalAlign=middle;resizable=0;points=[];" parent="U3lluBPhWWUwnAGhrMjW-64" vertex="1" connectable="0">
          <mxGeometry x="0.3387" y="-2" relative="1" as="geometry">
            <mxPoint as="offset" />
          </mxGeometry>
        </mxCell>
        <mxCell id="U3lluBPhWWUwnAGhrMjW-65" value="" style="endArrow=classic;html=1;rounded=0;exitX=0.75;exitY=0;exitDx=0;exitDy=0;entryX=1;entryY=0.25;entryDx=0;entryDy=0;" parent="1" source="U3lluBPhWWUwnAGhrMjW-49" target="spvVIrVOD9iuXhNW1NV7-40" edge="1">
          <mxGeometry width="50" height="50" relative="1" as="geometry">
            <mxPoint x="-979" y="1041" as="sourcePoint" />
            <mxPoint x="-929" y="991" as="targetPoint" />
            <Array as="points">
              <mxPoint x="-747" y="938" />
            </Array>
          </mxGeometry>
        </mxCell>
        <mxCell id="U3lluBPhWWUwnAGhrMjW-69" value="&lt;b&gt;&lt;font style=&quot;font-size: 14px;&quot;&gt;Response&lt;/font&gt;&lt;/b&gt;&lt;div&gt;&lt;b&gt;&lt;font style=&quot;font-size: 14px;&quot;&gt;&amp;nbsp;Role&lt;/font&gt;&lt;/b&gt;&lt;/div&gt;" style="edgeLabel;html=1;align=center;verticalAlign=middle;resizable=0;points=[];" parent="U3lluBPhWWUwnAGhrMjW-65" vertex="1" connectable="0">
          <mxGeometry x="-0.4904" y="-1" relative="1" as="geometry">
            <mxPoint as="offset" />
          </mxGeometry>
        </mxCell>
        <mxCell id="U3lluBPhWWUwnAGhrMjW-66" value="" style="endArrow=classic;html=1;rounded=0;exitX=0;exitY=0.25;exitDx=0;exitDy=0;entryX=1;entryY=0.75;entryDx=0;entryDy=0;" parent="1" source="spvVIrVOD9iuXhNW1NV7-40" target="spvVIrVOD9iuXhNW1NV7-105" edge="1">
          <mxGeometry width="50" height="50" relative="1" as="geometry">
            <mxPoint x="-964" y="1041" as="sourcePoint" />
            <mxPoint x="-929" y="991" as="targetPoint" />
          </mxGeometry>
        </mxCell>
        <mxCell id="U3lluBPhWWUwnAGhrMjW-70" value="&lt;b&gt;&lt;font style=&quot;font-size: 14px;&quot;&gt;New Role&lt;/font&gt;&lt;/b&gt;" style="edgeLabel;html=1;align=center;verticalAlign=middle;resizable=0;points=[];" parent="U3lluBPhWWUwnAGhrMjW-66" vertex="1" connectable="0">
          <mxGeometry x="-0.0984" relative="1" as="geometry">
            <mxPoint x="-1" as="offset" />
          </mxGeometry>
        </mxCell>
        <mxCell id="U3lluBPhWWUwnAGhrMjW-67" value="" style="endArrow=classic;html=1;rounded=0;exitX=1;exitY=0.5;exitDx=0;exitDy=0;entryX=0.252;entryY=-0.006;entryDx=0;entryDy=0;entryPerimeter=0;" parent="1" source="spvVIrVOD9iuXhNW1NV7-40" target="U3lluBPhWWUwnAGhrMjW-48" edge="1">
          <mxGeometry width="50" height="50" relative="1" as="geometry">
            <mxPoint x="-837" y="991" as="sourcePoint" />
            <mxPoint x="-787" y="941" as="targetPoint" />
            <Array as="points">
              <mxPoint x="-814" y="956" />
            </Array>
          </mxGeometry>
        </mxCell>
        <mxCell id="U3lluBPhWWUwnAGhrMjW-68" value="&lt;b&gt;Add Role&lt;/b&gt;" style="edgeLabel;html=1;align=center;verticalAlign=middle;resizable=0;points=[];" parent="U3lluBPhWWUwnAGhrMjW-67" vertex="1" connectable="0">
          <mxGeometry x="0.3708" y="1" relative="1" as="geometry">
            <mxPoint x="-60" y="-27" as="offset" />
          </mxGeometry>
        </mxCell>
      </root>
    </mxGraphModel>
  </diagram>
</mxfile>
